<svg width="1" height="2" viewBox="0 0 1 2" fill="none" xmlns="http://www.w3.org/2000/svg">
<g clip-path="url(#clip0_53_10)">
<rect width="1" height="2" fill="white"/>
<path d="M0.30863 0.566867C0.370466 0.383699 0.629534 0.383699 0.69137 0.566867V0.566867C0.698099 0.586799 0.707901 0.605558 0.720421 0.622465L0.867787 0.821463C0.946333 0.927529 0.946333 1.07247 0.867787 1.17854L0.720421 1.37754C0.707901 1.39444 0.698099 1.4132 0.69137 1.43313V1.43313C0.629534 1.6163 0.370466 1.6163 0.30863 1.43313V1.43313C0.301901 1.4132 0.292099 1.39444 0.279579 1.37754L0.132213 1.17854C0.0536674 1.07247 0.0536673 0.927529 0.132213 0.821463L0.279579 0.622465C0.292099 0.605558 0.301901 0.586799 0.30863 0.566867V0.566867Z" fill="#D9D9D9"/>
</g>
<defs>
<clipPath id="clip0_53_10">
<rect width="1" height="2" fill="white"/>
</clipPath>
</defs>
</svg>
